<svg width="22" height="22" viewBox="0 0 22 22" fill="none" xmlns="http://www.w3.org/2000/svg">
<path fill-rule="evenodd" clip-rule="evenodd" d="M5.83066 8.16797C5.83066 4.75411 8.60429 1.98047 12.0182 1.98047C15.4229 1.98047 18.2057 4.76327 18.2057 8.16797V10.8171C18.2057 11.0141 18.2502 11.3024 18.3347 11.6104C18.4182 11.9147 18.526 12.1852 18.6241 12.3569L19.6752 14.1026C20.5053 15.4861 19.8417 17.2883 18.3125 17.7945C14.2205 19.1614 9.80552 19.1613 5.71363 17.7942L5.71108 17.7933C4.93887 17.532 4.35976 16.9916 4.10083 16.2923C3.8416 15.5922 3.92979 14.8042 4.3524 14.1019L5.40513 12.3534C5.40536 12.353 5.40559 12.3526 5.40583 12.3523C5.50621 12.1835 5.61616 11.914 5.70102 11.6083C5.78613 11.3017 5.83066 11.0139 5.83066 10.8171V8.16797ZM12.0182 3.35547C9.36369 3.35547 7.20566 5.5135 7.20566 8.16797V10.8171C7.20566 11.1796 7.13102 11.5975 7.02592 11.9761C6.92076 12.3549 6.76978 12.7495 6.58618 13.0575L6.58464 13.0601L5.53057 14.8108C5.53054 14.8108 5.53061 14.8107 5.53057 14.8108C5.30246 15.19 5.28973 15.5433 5.39027 15.8149C5.49104 16.087 5.73197 16.3484 6.15068 16.4905C9.95974 17.7628 14.0688 17.7627 17.8778 16.4901L17.8799 16.4894C18.5681 16.2619 18.8757 15.4433 18.4964 14.8105C18.4963 14.8103 18.4965 14.8107 18.4964 14.8105L17.4359 13.0491C17.2598 12.7439 17.1123 12.352 17.0087 11.9741C16.9052 11.5969 16.8307 11.1793 16.8307 10.8171V8.16797C16.8307 5.52266 14.6635 3.35547 12.0182 3.35547Z" fill="#17191B"/>
<path fill-rule="evenodd" clip-rule="evenodd" d="M9.68218 2.68247C10.0483 1.74813 10.9574 1.09082 12.0181 1.09082C13.0788 1.09082 13.9879 1.74813 14.354 2.68247C14.4496 2.92637 14.3983 3.20339 14.2217 3.39686C14.0451 3.59032 13.7738 3.6666 13.5223 3.59356C13.268 3.51973 13.0113 3.46402 12.7512 3.43249L12.7487 3.43218C11.9563 3.33313 11.2076 3.39192 10.5142 3.59349C10.2626 3.66663 9.99131 3.59041 9.81463 3.39694C9.63794 3.20348 9.58658 2.92641 9.68218 2.68247Z" fill="#17191B"/>
<path fill-rule="evenodd" clip-rule="evenodd" d="M9.95605 17.4717C9.95605 18.0332 10.1896 18.5571 10.5614 18.9289C10.9331 19.3006 11.4571 19.5342 12.0186 19.5342C13.1514 19.5342 14.0811 18.6045 14.0811 17.4717H15.4561C15.4561 19.3639 13.9108 20.9092 12.0186 20.9092C11.0767 20.9092 10.2074 20.5194 9.58908 19.9011C8.97082 19.2829 8.58105 18.4135 8.58105 17.4717H9.95605Z" fill="#17191B"/>
</svg>
