<svg width="22" height="22" viewBox="0 0 22 22" fill="none" xmlns="http://www.w3.org/2000/svg">
<path fill-rule="evenodd" clip-rule="evenodd" d="M10.5413 2.521C6.11156 2.521 2.52051 6.11205 2.52051 10.5418C2.52051 14.9716 6.11156 18.5627 10.5413 18.5627C14.9711 18.5627 18.5622 14.9716 18.5622 10.5418C18.5622 6.11205 14.9711 2.521 10.5413 2.521ZM1.14551 10.5418C1.14551 5.35265 5.35217 1.146 10.5413 1.146C15.7305 1.146 19.9372 5.35265 19.9372 10.5418C19.9372 15.731 15.7305 19.9377 10.5413 19.9377C5.35217 19.9377 1.14551 15.731 1.14551 10.5418Z" fill="#A1A4A9"/>
<path fill-rule="evenodd" clip-rule="evenodd" d="M17.8469 17.8474C18.1154 17.5789 18.5507 17.5789 18.8191 17.8474L20.6525 19.6807C20.921 19.9492 20.921 20.3845 20.6525 20.653C20.384 20.9215 19.9487 20.9215 19.6802 20.653L17.8469 18.8196C17.5784 18.5511 17.5784 18.1158 17.8469 17.8474Z" fill="#A1A4A9"/>
</svg>
